G75*
%MOIN*%
%OFA0B0*%
%FSLAX25Y25*%
%IPPOS*%
%LPD*%
%AMOC8*
5,1,8,0,0,1.08239X$1,22.5*
%
%ADD10R,0.04343X0.04146*%
%ADD11R,0.05131X0.04737*%
%ADD12R,0.04737X0.05131*%
%ADD13R,0.04146X0.04343*%
%ADD14R,0.03950X0.04343*%
%ADD15C,0.01421*%
%ADD16R,0.01784X0.05918*%
%ADD17R,0.05918X0.01784*%
%ADD18C,0.11627*%
%ADD19R,0.07800X0.07800*%
%ADD20C,0.07800*%
%ADD21C,0.25197*%
%ADD22C,0.11706*%
%ADD23C,0.08200*%
%ADD24R,0.06706X0.06706*%
%ADD25C,0.06706*%
%ADD26C,0.03581*%
%ADD27C,0.03778*%
D10*
X0093229Y0054646D03*
X0093229Y0059213D03*
X0093229Y0068844D03*
X0093229Y0073411D03*
X0139832Y0073411D03*
X0139832Y0068844D03*
X0139832Y0059213D03*
X0139832Y0054646D03*
X0186436Y0054646D03*
X0186436Y0059213D03*
X0186436Y0068844D03*
X0186436Y0073411D03*
X0241487Y0073411D03*
X0241487Y0068844D03*
X0241487Y0059213D03*
X0241487Y0054646D03*
X0246621Y0112890D03*
X0246621Y0117457D03*
D11*
X0231227Y0118520D03*
X0231227Y0111827D03*
X0197802Y0106721D03*
X0191109Y0106721D03*
X0275303Y0067767D03*
X0281996Y0067767D03*
X0282082Y0148775D03*
X0275389Y0148775D03*
X0209928Y0173611D03*
X0203235Y0173611D03*
X0075940Y0131856D03*
X0069247Y0131856D03*
X0069247Y0119845D03*
X0075940Y0119845D03*
X0075940Y0107834D03*
X0069247Y0107834D03*
D12*
X0181896Y0115028D03*
X0181896Y0121721D03*
X0181936Y0132075D03*
X0181936Y0138768D03*
X0182251Y0149122D03*
X0182251Y0155815D03*
X0191741Y0169588D03*
X0191741Y0176281D03*
X0229849Y0188335D03*
X0229849Y0195028D03*
X0241385Y0195028D03*
X0241385Y0188335D03*
D13*
X0262003Y0148578D03*
X0266570Y0148578D03*
X0266484Y0067570D03*
X0261917Y0067570D03*
X0299029Y0045790D03*
X0303596Y0045790D03*
X0313203Y0045790D03*
X0317770Y0045790D03*
X0088281Y0164705D03*
X0083714Y0164705D03*
X0073976Y0164763D03*
X0069409Y0164763D03*
X0068735Y0079752D03*
X0073302Y0079752D03*
X0057416Y0079752D03*
X0052849Y0079752D03*
D14*
X0231385Y0159044D03*
X0238865Y0159044D03*
X0235125Y0167311D03*
D15*
X0057525Y0133514D02*
X0057525Y0130198D01*
X0057525Y0133514D02*
X0060841Y0133514D01*
X0060841Y0130198D01*
X0057525Y0130198D01*
X0057525Y0131618D02*
X0060841Y0131618D01*
X0060841Y0133038D02*
X0057525Y0133038D01*
X0050619Y0133514D02*
X0050619Y0130198D01*
X0050619Y0133514D02*
X0053935Y0133514D01*
X0053935Y0130198D01*
X0050619Y0130198D01*
X0050619Y0131618D02*
X0053935Y0131618D01*
X0053935Y0133038D02*
X0050619Y0133038D01*
X0050619Y0121503D02*
X0050619Y0118187D01*
X0050619Y0121503D02*
X0053935Y0121503D01*
X0053935Y0118187D01*
X0050619Y0118187D01*
X0050619Y0119607D02*
X0053935Y0119607D01*
X0053935Y0121027D02*
X0050619Y0121027D01*
X0057525Y0121503D02*
X0057525Y0118187D01*
X0057525Y0121503D02*
X0060841Y0121503D01*
X0060841Y0118187D01*
X0057525Y0118187D01*
X0057525Y0119607D02*
X0060841Y0119607D01*
X0060841Y0121027D02*
X0057525Y0121027D01*
X0057525Y0109492D02*
X0057525Y0106176D01*
X0057525Y0109492D02*
X0060841Y0109492D01*
X0060841Y0106176D01*
X0057525Y0106176D01*
X0057525Y0107596D02*
X0060841Y0107596D01*
X0060841Y0109016D02*
X0057525Y0109016D01*
X0050619Y0109492D02*
X0050619Y0106176D01*
X0050619Y0109492D02*
X0053935Y0109492D01*
X0053935Y0106176D01*
X0050619Y0106176D01*
X0050619Y0107596D02*
X0053935Y0107596D01*
X0053935Y0109016D02*
X0050619Y0109016D01*
D16*
X0197723Y0122272D03*
X0199692Y0122272D03*
X0201660Y0122272D03*
X0203629Y0122272D03*
X0205597Y0122272D03*
X0207566Y0122272D03*
X0209534Y0122272D03*
X0211503Y0122272D03*
X0213471Y0122272D03*
X0215440Y0122272D03*
X0217408Y0122272D03*
X0219377Y0122272D03*
X0219377Y0155737D03*
X0217408Y0155737D03*
X0215440Y0155737D03*
X0213471Y0155737D03*
X0211503Y0155737D03*
X0209534Y0155737D03*
X0207566Y0155737D03*
X0205597Y0155737D03*
X0203629Y0155737D03*
X0201660Y0155737D03*
X0199692Y0155737D03*
X0197723Y0155737D03*
D17*
X0191818Y0149831D03*
X0191818Y0147863D03*
X0191818Y0145894D03*
X0191818Y0143926D03*
X0191818Y0141957D03*
X0191818Y0139989D03*
X0191818Y0138020D03*
X0191818Y0136052D03*
X0191818Y0134083D03*
X0191818Y0132114D03*
X0191818Y0130146D03*
X0191818Y0128177D03*
X0225282Y0128177D03*
X0225282Y0130146D03*
X0225282Y0132114D03*
X0225282Y0134083D03*
X0225282Y0136052D03*
X0225282Y0138020D03*
X0225282Y0139989D03*
X0225282Y0141957D03*
X0225282Y0143926D03*
X0225282Y0145894D03*
X0225282Y0147863D03*
X0225282Y0149831D03*
D18*
X0264810Y0214792D03*
X0036463Y0214792D03*
X0036463Y0021878D03*
X0264810Y0021878D03*
D19*
X0055637Y0209792D03*
D20*
X0065637Y0209792D03*
X0075637Y0209792D03*
X0085637Y0209792D03*
X0095637Y0209792D03*
X0105637Y0209792D03*
X0115637Y0209792D03*
X0125637Y0209792D03*
X0135637Y0209792D03*
X0145637Y0209792D03*
X0155637Y0209792D03*
X0165637Y0209792D03*
X0175637Y0209792D03*
X0185637Y0209792D03*
X0195637Y0209792D03*
X0205637Y0209792D03*
X0215637Y0209792D03*
X0225637Y0209792D03*
X0235637Y0209792D03*
X0245637Y0209792D03*
X0245637Y0219792D03*
X0235637Y0219792D03*
X0225637Y0219792D03*
X0215637Y0219792D03*
X0205637Y0219792D03*
X0195637Y0219792D03*
X0185637Y0219792D03*
X0175637Y0219792D03*
X0165637Y0219792D03*
X0155637Y0219792D03*
X0145637Y0219792D03*
X0135637Y0219792D03*
X0125637Y0219792D03*
X0115637Y0219792D03*
X0105637Y0219792D03*
X0095637Y0219792D03*
X0085637Y0219792D03*
X0075637Y0219792D03*
X0065637Y0219792D03*
X0055637Y0219792D03*
D21*
X0036463Y0021878D03*
X0264810Y0021878D03*
X0264810Y0214792D03*
X0036463Y0214792D03*
D22*
X0300799Y0214673D03*
X0353949Y0216641D03*
X0353949Y0154436D03*
X0354106Y0135634D03*
X0300957Y0133665D03*
X0300799Y0156405D03*
X0300957Y0075397D03*
X0354106Y0073429D03*
D23*
X0301006Y0099399D03*
X0301006Y0109399D03*
X0230127Y0055161D03*
X0220127Y0055161D03*
X0174410Y0055247D03*
X0164410Y0055247D03*
X0128180Y0055621D03*
X0118180Y0055621D03*
X0081231Y0055305D03*
X0071231Y0055305D03*
X0068265Y0090437D03*
X0058265Y0090437D03*
X0072266Y0175940D03*
X0082266Y0175940D03*
X0300906Y0177981D03*
X0300906Y0187981D03*
X0306119Y0030350D03*
X0316119Y0030350D03*
D24*
X0328886Y0023842D03*
X0343453Y0023842D03*
X0358020Y0023842D03*
X0358020Y0045496D03*
X0343453Y0045496D03*
X0328886Y0045496D03*
X0241193Y0044235D03*
X0241193Y0029668D03*
X0241193Y0015101D03*
X0219540Y0015101D03*
X0219540Y0029668D03*
X0219540Y0044235D03*
X0186142Y0044235D03*
X0186142Y0029668D03*
X0186142Y0015101D03*
X0164488Y0015101D03*
X0164488Y0029668D03*
X0164488Y0044235D03*
X0139716Y0044235D03*
X0139716Y0029668D03*
X0139716Y0015101D03*
X0118062Y0015101D03*
X0118062Y0029668D03*
X0118062Y0044235D03*
X0093290Y0044235D03*
X0093290Y0029668D03*
X0071636Y0029668D03*
X0071636Y0044235D03*
X0058801Y0046580D03*
X0044234Y0046580D03*
X0029667Y0046580D03*
X0029667Y0068233D03*
X0044234Y0068233D03*
X0058801Y0068233D03*
X0071636Y0015101D03*
X0093290Y0015101D03*
X0058801Y0165302D03*
X0044234Y0165302D03*
X0029667Y0165302D03*
X0029667Y0186955D03*
X0044234Y0186955D03*
X0058801Y0186955D03*
D25*
X0053683Y0176128D03*
X0033998Y0176128D03*
X0033998Y0057406D03*
X0053683Y0057406D03*
X0082463Y0039117D03*
X0082463Y0019432D03*
X0128889Y0019432D03*
X0128889Y0039117D03*
X0175315Y0039117D03*
X0175315Y0019432D03*
X0230366Y0019432D03*
X0230366Y0039117D03*
X0334004Y0034669D03*
X0353689Y0034669D03*
D26*
X0321503Y0045618D03*
X0246699Y0072193D03*
X0243747Y0063335D03*
X0188137Y0063335D03*
X0142861Y0062843D03*
X0090203Y0062843D03*
X0086759Y0049063D03*
X0061168Y0080067D03*
X0073471Y0084004D03*
X0074455Y0097292D03*
X0069534Y0114024D03*
X0084298Y0153394D03*
X0090696Y0159792D03*
X0077900Y0164713D03*
X0177802Y0201130D03*
X0233904Y0195225D03*
X0261463Y0153886D03*
X0257526Y0144044D03*
X0251129Y0137646D03*
X0242762Y0113040D03*
X0224062Y0114024D03*
X0220617Y0110579D03*
X0220617Y0117469D03*
X0211266Y0127311D03*
X0217172Y0129772D03*
X0199455Y0127311D03*
X0187152Y0120422D03*
X0201424Y0113040D03*
X0179770Y0110579D03*
X0215203Y0150933D03*
X0291975Y0133709D03*
D27*
X0255801Y0129566D03*
X0241426Y0143999D03*
X0132425Y0203109D03*
M02*
