M48
INCH,TZ
T10C0.012
T11C0.014
T12C0.039
T13C0.040
T14C0.059
T15C0.070
T16C0.108
%
T10
X008676Y004906
X009020Y006284
X007347Y008400
X006117Y008007
X007446Y009729
X006953Y011402
X008430Y015339
X009070Y015979
X007790Y016471
X017780Y020113
X023390Y019523
X026146Y015389
X025753Y014404
X025113Y013765
X024276Y011304
X022406Y011402
X022062Y011058
X022062Y011747
X021127Y012731
X021717Y012977
X019946Y012731
X018715Y012042
X020142Y011304
X017977Y011058
X021520Y015093
X029198Y013371
X024670Y007219
X024375Y006334
X018814Y006334
X014286Y006284
X032150Y004562
T11
X025580Y012957
X024143Y014400
X013243Y020311
T12
X013564Y020979
X014564Y020979
X015564Y020979
X016564Y020979
X017564Y020979
X018564Y020979
X019564Y020979
X020564Y020979
X021564Y020979
X022564Y020979
X023564Y020979
X024564Y020979
X024564Y021979
X023564Y021979
X022564Y021979
X021564Y021979
X020564Y021979
X019564Y021979
X018564Y021979
X017564Y021979
X016564Y021979
X015564Y021979
X014564Y021979
X013564Y021979
X012564Y021979
X011564Y021979
X010564Y021979
X009564Y021979
X008564Y021979
X007564Y021979
X006564Y021979
X005564Y021979
X005564Y020979
X006564Y020979
X007564Y020979
X008564Y020979
X009564Y020979
X010564Y020979
X011564Y020979
X012564Y020979
T13
X008227Y017594
X007227Y017594
X006827Y009044
X005827Y009044
X007123Y005531
X008123Y005531
X011818Y005562
X012818Y005562
X016441Y005525
X017441Y005525
X022013Y005516
X023013Y005516
X030101Y009940
X030101Y010940
X030091Y017798
X030091Y018798
X030612Y003035
X031612Y003035
T14
X033400Y003467
X035369Y003467
X023037Y003912
X023037Y001943
X017532Y001943
X017532Y003912
X012889Y003912
X012889Y001943
X008246Y001943
X008246Y003912
X005368Y005741
X003400Y005741
X003400Y017613
X005368Y017613
T15
X030080Y015641
X030096Y013367
X035411Y013563
X035395Y015444
X030080Y021467
X035395Y021664
X035411Y007343
X030096Y007540
T16
X003646Y002188
X026481Y002188
X026481Y021479
X003646Y021479
M30

