G75*
%MOIN*%
%OFA0B0*%
%FSLAX25Y25*%
%IPPOS*%
%LPD*%
%AMOC8*
5,1,8,0,0,1.08239X$1,22.5*
%
%ADD10R,0.03543X0.03346*%
%ADD11R,0.04331X0.03937*%
%ADD12R,0.03937X0.04331*%
%ADD13R,0.03346X0.03543*%
%ADD14R,0.03150X0.03543*%
%ADD15C,0.01181*%
%ADD16R,0.00984X0.05118*%
%ADD17R,0.05118X0.00984*%
%ADD18R,0.07000X0.07000*%
%ADD19C,0.07000*%
%ADD20C,0.10906*%
%ADD21C,0.07400*%
%ADD22R,0.05906X0.05906*%
%ADD23C,0.00600*%
%ADD24C,0.02781*%
%ADD25C,0.02978*%
D10*
X0093229Y0054646D03*
X0093229Y0059213D03*
X0093229Y0068844D03*
X0093229Y0073411D03*
X0139832Y0073411D03*
X0139832Y0068844D03*
X0139832Y0059213D03*
X0139832Y0054646D03*
X0186436Y0054646D03*
X0186436Y0059213D03*
X0186436Y0068844D03*
X0186436Y0073411D03*
X0241487Y0073411D03*
X0241487Y0068844D03*
X0241487Y0059213D03*
X0241487Y0054646D03*
X0246621Y0112890D03*
X0246621Y0117457D03*
D11*
X0231227Y0118520D03*
X0231227Y0111827D03*
X0197802Y0106721D03*
X0191109Y0106721D03*
X0275303Y0067767D03*
X0281996Y0067767D03*
X0282082Y0148775D03*
X0275389Y0148775D03*
X0209928Y0173611D03*
X0203235Y0173611D03*
X0075940Y0131856D03*
X0069247Y0131856D03*
X0069247Y0119845D03*
X0075940Y0119845D03*
X0075940Y0107834D03*
X0069247Y0107834D03*
D12*
X0181896Y0115028D03*
X0181896Y0121721D03*
X0181936Y0132075D03*
X0181936Y0138768D03*
X0182251Y0149122D03*
X0182251Y0155815D03*
X0191741Y0169588D03*
X0191741Y0176281D03*
X0229849Y0188335D03*
X0229849Y0195028D03*
X0241385Y0195028D03*
X0241385Y0188335D03*
D13*
X0262003Y0148578D03*
X0266570Y0148578D03*
X0266484Y0067570D03*
X0261917Y0067570D03*
X0299029Y0045790D03*
X0303596Y0045790D03*
X0313203Y0045790D03*
X0317770Y0045790D03*
X0088281Y0164705D03*
X0083714Y0164705D03*
X0073976Y0164763D03*
X0069409Y0164763D03*
X0068735Y0079752D03*
X0073302Y0079752D03*
X0057416Y0079752D03*
X0052849Y0079752D03*
D14*
X0231385Y0159044D03*
X0238865Y0159044D03*
X0235125Y0167311D03*
D15*
X0057805Y0133234D02*
X0057805Y0130478D01*
X0057805Y0133234D02*
X0060561Y0133234D01*
X0060561Y0130478D01*
X0057805Y0130478D01*
X0057805Y0131658D02*
X0060561Y0131658D01*
X0060561Y0132838D02*
X0057805Y0132838D01*
X0050899Y0133234D02*
X0050899Y0130478D01*
X0050899Y0133234D02*
X0053655Y0133234D01*
X0053655Y0130478D01*
X0050899Y0130478D01*
X0050899Y0131658D02*
X0053655Y0131658D01*
X0053655Y0132838D02*
X0050899Y0132838D01*
X0050899Y0121223D02*
X0050899Y0118467D01*
X0050899Y0121223D02*
X0053655Y0121223D01*
X0053655Y0118467D01*
X0050899Y0118467D01*
X0050899Y0119647D02*
X0053655Y0119647D01*
X0053655Y0120827D02*
X0050899Y0120827D01*
X0057805Y0121223D02*
X0057805Y0118467D01*
X0057805Y0121223D02*
X0060561Y0121223D01*
X0060561Y0118467D01*
X0057805Y0118467D01*
X0057805Y0119647D02*
X0060561Y0119647D01*
X0060561Y0120827D02*
X0057805Y0120827D01*
X0057805Y0109212D02*
X0057805Y0106456D01*
X0057805Y0109212D02*
X0060561Y0109212D01*
X0060561Y0106456D01*
X0057805Y0106456D01*
X0057805Y0107636D02*
X0060561Y0107636D01*
X0060561Y0108816D02*
X0057805Y0108816D01*
X0050899Y0109212D02*
X0050899Y0106456D01*
X0050899Y0109212D02*
X0053655Y0109212D01*
X0053655Y0106456D01*
X0050899Y0106456D01*
X0050899Y0107636D02*
X0053655Y0107636D01*
X0053655Y0108816D02*
X0050899Y0108816D01*
D16*
X0197723Y0122272D03*
X0199692Y0122272D03*
X0201660Y0122272D03*
X0203629Y0122272D03*
X0205597Y0122272D03*
X0207566Y0122272D03*
X0209534Y0122272D03*
X0211503Y0122272D03*
X0213471Y0122272D03*
X0215440Y0122272D03*
X0217408Y0122272D03*
X0219377Y0122272D03*
X0219377Y0155737D03*
X0217408Y0155737D03*
X0215440Y0155737D03*
X0213471Y0155737D03*
X0211503Y0155737D03*
X0209534Y0155737D03*
X0207566Y0155737D03*
X0205597Y0155737D03*
X0203629Y0155737D03*
X0201660Y0155737D03*
X0199692Y0155737D03*
X0197723Y0155737D03*
D17*
X0191818Y0149831D03*
X0191818Y0147863D03*
X0191818Y0145894D03*
X0191818Y0143926D03*
X0191818Y0141957D03*
X0191818Y0139989D03*
X0191818Y0138020D03*
X0191818Y0136052D03*
X0191818Y0134083D03*
X0191818Y0132114D03*
X0191818Y0130146D03*
X0191818Y0128177D03*
X0225282Y0128177D03*
X0225282Y0130146D03*
X0225282Y0132114D03*
X0225282Y0134083D03*
X0225282Y0136052D03*
X0225282Y0138020D03*
X0225282Y0139989D03*
X0225282Y0141957D03*
X0225282Y0143926D03*
X0225282Y0145894D03*
X0225282Y0147863D03*
X0225282Y0149831D03*
D18*
X0055637Y0209792D03*
D19*
X0065637Y0209792D03*
X0075637Y0209792D03*
X0085637Y0209792D03*
X0095637Y0209792D03*
X0105637Y0209792D03*
X0115637Y0209792D03*
X0125637Y0209792D03*
X0135637Y0209792D03*
X0145637Y0209792D03*
X0155637Y0209792D03*
X0165637Y0209792D03*
X0175637Y0209792D03*
X0185637Y0209792D03*
X0195637Y0209792D03*
X0205637Y0209792D03*
X0215637Y0209792D03*
X0225637Y0209792D03*
X0235637Y0209792D03*
X0245637Y0209792D03*
X0245637Y0219792D03*
X0235637Y0219792D03*
X0225637Y0219792D03*
X0215637Y0219792D03*
X0205637Y0219792D03*
X0195637Y0219792D03*
X0185637Y0219792D03*
X0175637Y0219792D03*
X0165637Y0219792D03*
X0155637Y0219792D03*
X0145637Y0219792D03*
X0135637Y0219792D03*
X0125637Y0219792D03*
X0115637Y0219792D03*
X0105637Y0219792D03*
X0095637Y0219792D03*
X0085637Y0219792D03*
X0075637Y0219792D03*
X0065637Y0219792D03*
X0055637Y0219792D03*
D20*
X0300799Y0214673D03*
X0353949Y0216641D03*
X0353949Y0154436D03*
X0354106Y0135634D03*
X0300957Y0133665D03*
X0300799Y0156405D03*
X0300957Y0075397D03*
X0354106Y0073429D03*
D21*
X0301006Y0099399D03*
X0301006Y0109399D03*
X0230127Y0055161D03*
X0220127Y0055161D03*
X0174410Y0055247D03*
X0164410Y0055247D03*
X0128180Y0055621D03*
X0118180Y0055621D03*
X0081231Y0055305D03*
X0071231Y0055305D03*
X0068265Y0090437D03*
X0058265Y0090437D03*
X0072266Y0175940D03*
X0082266Y0175940D03*
X0300906Y0177981D03*
X0300906Y0187981D03*
X0306119Y0030350D03*
X0316119Y0030350D03*
D22*
X0328886Y0023842D03*
X0343453Y0023842D03*
X0358020Y0023842D03*
X0358020Y0045496D03*
X0343453Y0045496D03*
X0328886Y0045496D03*
X0241193Y0044235D03*
X0241193Y0029668D03*
X0241193Y0015101D03*
X0219540Y0015101D03*
X0219540Y0029668D03*
X0219540Y0044235D03*
X0186142Y0044235D03*
X0186142Y0029668D03*
X0186142Y0015101D03*
X0164488Y0015101D03*
X0164488Y0029668D03*
X0164488Y0044235D03*
X0139716Y0044235D03*
X0139716Y0029668D03*
X0139716Y0015101D03*
X0118062Y0015101D03*
X0118062Y0029668D03*
X0118062Y0044235D03*
X0093290Y0044235D03*
X0093290Y0029668D03*
X0071636Y0029668D03*
X0071636Y0044235D03*
X0058801Y0046580D03*
X0044234Y0046580D03*
X0029667Y0046580D03*
X0029667Y0068233D03*
X0044234Y0068233D03*
X0058801Y0068233D03*
X0071636Y0015101D03*
X0093290Y0015101D03*
X0058801Y0165302D03*
X0044234Y0165302D03*
X0029667Y0165302D03*
X0029667Y0186955D03*
X0044234Y0186955D03*
X0058801Y0186955D03*
D23*
X0054770Y0046580D02*
X0054770Y0043158D01*
X0055262Y0042666D01*
X0066089Y0042666D01*
X0066089Y0050048D01*
X0071011Y0054969D01*
X0071231Y0055305D01*
X0071011Y0055461D01*
X0070518Y0055953D01*
X0070518Y0079752D01*
X0068735Y0079752D01*
X0069099Y0079752D01*
X0069099Y0083077D01*
X0072979Y0086957D01*
X0072979Y0092370D01*
X0072487Y0092863D01*
X0072487Y0095815D01*
X0063629Y0095815D01*
X0061168Y0093355D01*
X0046896Y0107626D01*
X0046896Y0161268D01*
X0044234Y0161268D01*
X0044234Y0165302D01*
X0046896Y0161268D02*
X0080361Y0161268D01*
X0080361Y0164705D01*
X0083714Y0164705D01*
X0083714Y0168650D01*
X0087251Y0168650D01*
X0087251Y0180953D01*
X0077408Y0180953D01*
X0072487Y0176032D01*
X0072266Y0175940D01*
X0067566Y0174063D02*
X0072979Y0168650D01*
X0069534Y0165205D01*
X0069409Y0164763D01*
X0073976Y0164763D02*
X0074455Y0164713D01*
X0077900Y0164713D01*
X0072979Y0168650D02*
X0079869Y0175540D01*
X0081837Y0175540D01*
X0082266Y0175940D01*
X0067566Y0174063D02*
X0067566Y0191288D01*
X0040991Y0191288D01*
X0040007Y0190303D01*
X0040007Y0187351D01*
X0029672Y0187351D01*
X0029667Y0186955D01*
X0030508Y0187796D01*
X0055637Y0209792D02*
X0055755Y0209989D01*
X0061168Y0215402D01*
X0061168Y0221800D01*
X0063629Y0224260D01*
X0140892Y0224260D01*
X0140892Y0190796D01*
X0179278Y0152410D01*
X0179278Y0141583D01*
X0181739Y0139122D01*
X0181936Y0138768D01*
X0182231Y0139122D01*
X0188137Y0139122D01*
X0188137Y0143552D01*
X0188137Y0147489D01*
X0191581Y0147489D01*
X0191818Y0147863D01*
X0191581Y0149457D02*
X0191818Y0149831D01*
X0192074Y0149457D01*
X0195518Y0149457D01*
X0195518Y0145520D01*
X0195518Y0143059D01*
X0205361Y0152902D01*
X0205361Y0155363D01*
X0205597Y0155737D01*
X0205361Y0155855D01*
X0205361Y0171603D01*
X0203392Y0173571D01*
X0203235Y0173611D01*
X0207822Y0171603D02*
X0207822Y0155855D01*
X0207566Y0155737D01*
X0209534Y0155737D02*
X0209790Y0155363D01*
X0209790Y0152902D01*
X0214219Y0148473D01*
X0221601Y0148473D01*
X0221601Y0155855D01*
X0227014Y0161268D01*
X0227014Y0185874D01*
X0229475Y0188335D01*
X0229849Y0188335D01*
X0238333Y0188335D01*
X0238333Y0197685D01*
X0240302Y0199654D01*
X0240302Y0214418D01*
X0245223Y0219339D01*
X0245637Y0219792D01*
X0235637Y0219792D02*
X0235381Y0219339D01*
X0230951Y0214910D01*
X0230951Y0208512D01*
X0225538Y0203099D01*
X0225538Y0161760D01*
X0219633Y0155855D01*
X0219377Y0155737D01*
X0217408Y0155737D02*
X0217172Y0155855D01*
X0217172Y0176032D01*
X0188137Y0205067D01*
X0165991Y0205067D01*
X0165991Y0209496D01*
X0165637Y0209792D01*
X0177802Y0201130D02*
X0188137Y0201130D01*
X0213235Y0176032D01*
X0213235Y0171111D01*
X0211759Y0169634D01*
X0211759Y0155855D01*
X0211503Y0155737D01*
X0213471Y0155737D02*
X0213727Y0155855D01*
X0213727Y0169634D01*
X0214711Y0170618D01*
X0214711Y0176524D01*
X0187644Y0203591D01*
X0145814Y0203591D01*
X0145814Y0209496D01*
X0145637Y0209792D01*
X0132425Y0203109D02*
X0131237Y0202052D01*
X0131237Y0195396D01*
X0092141Y0156301D01*
X0076863Y0156301D01*
X0074943Y0154594D01*
X0055047Y0134698D01*
X0055047Y0134318D01*
X0052277Y0131856D01*
X0049409Y0133851D02*
X0073058Y0157501D01*
X0091644Y0157501D01*
X0130037Y0195893D01*
X0130037Y0214192D01*
X0135637Y0219792D01*
X0125637Y0219792D02*
X0125637Y0219339D01*
X0121207Y0214910D01*
X0121207Y0190303D01*
X0090696Y0159792D01*
X0088727Y0164713D02*
X0088281Y0164705D01*
X0088727Y0164713D02*
X0088727Y0200146D01*
X0080361Y0208512D01*
X0080361Y0214910D01*
X0075932Y0219339D01*
X0075637Y0219792D01*
X0075440Y0153394D02*
X0084298Y0153394D01*
X0075440Y0153394D02*
X0056247Y0134201D01*
X0056247Y0123866D01*
X0052310Y0119929D01*
X0052277Y0119845D01*
X0049409Y0117850D02*
X0049409Y0133851D01*
X0059199Y0132233D02*
X0059183Y0131856D01*
X0059199Y0132233D02*
X0066089Y0139122D01*
X0075932Y0139122D01*
X0075932Y0132233D01*
X0075940Y0131856D01*
X0072487Y0135185D02*
X0072487Y0123374D01*
X0075932Y0119929D01*
X0075940Y0119845D01*
X0069534Y0119929D02*
X0069247Y0119845D01*
X0069534Y0119437D01*
X0069534Y0114024D01*
X0069534Y0108118D01*
X0069247Y0107834D01*
X0075932Y0107626D02*
X0075940Y0107834D01*
X0075932Y0107626D02*
X0075932Y0100737D01*
X0066089Y0100737D01*
X0059199Y0107626D01*
X0059183Y0107834D01*
X0052277Y0107834D02*
X0052277Y0114981D01*
X0049409Y0117850D01*
X0059183Y0119845D02*
X0059199Y0119929D01*
X0066089Y0126819D01*
X0066089Y0134201D01*
X0067074Y0135185D01*
X0072487Y0135185D01*
X0069534Y0131740D02*
X0069247Y0131856D01*
X0069534Y0131740D02*
X0069534Y0119929D01*
X0074455Y0097292D02*
X0166483Y0097292D01*
X0179770Y0110579D01*
X0185184Y0112548D02*
X0148766Y0076130D01*
X0093648Y0076130D01*
X0093648Y0073670D01*
X0093229Y0073411D01*
X0093156Y0073177D01*
X0081345Y0073177D01*
X0081345Y0055461D01*
X0081231Y0055305D01*
X0080853Y0054969D01*
X0080853Y0050540D01*
X0070518Y0050540D01*
X0067566Y0047587D01*
X0067566Y0019044D01*
X0071503Y0015107D01*
X0071636Y0015101D01*
X0069179Y0015101D01*
X0066900Y0012822D01*
X0066184Y0012822D01*
X0093290Y0029668D02*
X0093290Y0033807D01*
X0097585Y0033807D01*
X0097585Y0049063D01*
X0086759Y0049063D01*
X0093229Y0054646D02*
X0093156Y0054969D01*
X0090203Y0054969D01*
X0090203Y0062843D01*
X0090203Y0065796D01*
X0093156Y0068748D01*
X0093229Y0068844D01*
X0093229Y0059213D02*
X0093229Y0058906D01*
X0097585Y0058906D01*
X0097585Y0049063D01*
X0097585Y0058906D02*
X0117762Y0058906D01*
X0118180Y0055621D01*
X0117762Y0055953D01*
X0117762Y0058906D01*
X0117762Y0060382D01*
X0126621Y0060382D01*
X0139416Y0073177D01*
X0139832Y0073411D01*
X0139908Y0073177D01*
X0164514Y0073177D01*
X0164514Y0055461D01*
X0164410Y0055247D01*
X0164022Y0054969D01*
X0164022Y0053985D01*
X0139908Y0029870D01*
X0139716Y0029668D01*
X0160577Y0018552D02*
X0160577Y0047587D01*
X0163530Y0050540D01*
X0174357Y0050540D01*
X0174357Y0054969D01*
X0174410Y0055247D01*
X0174849Y0055461D01*
X0174849Y0058906D01*
X0186168Y0058906D01*
X0186436Y0059213D01*
X0186660Y0054969D02*
X0186436Y0054646D01*
X0186660Y0054969D02*
X0189121Y0054969D01*
X0189121Y0063335D01*
X0188137Y0063335D01*
X0189121Y0063335D02*
X0189121Y0066288D01*
X0186660Y0068748D01*
X0186436Y0068844D01*
X0190597Y0069733D02*
X0186660Y0073670D01*
X0186436Y0073411D01*
X0186168Y0073177D01*
X0164514Y0073177D01*
X0142861Y0065796D02*
X0142861Y0062843D01*
X0142861Y0054969D01*
X0139908Y0054969D01*
X0139832Y0054646D01*
X0139416Y0058906D02*
X0139832Y0059213D01*
X0139416Y0058906D02*
X0128589Y0058906D01*
X0128589Y0055953D01*
X0128180Y0055621D01*
X0128097Y0055461D01*
X0128097Y0050540D01*
X0116778Y0050540D01*
X0113825Y0047587D01*
X0113825Y0019044D01*
X0117762Y0015107D01*
X0118062Y0015101D01*
X0115708Y0012747D01*
X0160577Y0018552D02*
X0164022Y0015107D01*
X0164488Y0015101D01*
X0164463Y0015076D01*
X0186142Y0029668D02*
X0186168Y0029870D01*
X0190597Y0034300D01*
X0190597Y0069733D01*
X0186660Y0073670D02*
X0191581Y0078591D01*
X0191581Y0086465D01*
X0196503Y0091386D01*
X0228491Y0091386D01*
X0228491Y0109103D01*
X0225046Y0109103D01*
X0225046Y0109595D01*
X0217172Y0117469D01*
X0219140Y0119437D01*
X0219140Y0122272D01*
X0219377Y0122272D01*
X0219377Y0128737D01*
X0219462Y0128823D01*
X0219462Y0129602D01*
X0219633Y0129772D01*
X0225046Y0129772D01*
X0225282Y0130146D01*
X0225282Y0130280D01*
X0225649Y0130646D01*
X0225795Y0130679D01*
X0225822Y0130722D01*
X0228214Y0130722D01*
X0228741Y0131250D01*
X0228741Y0132979D01*
X0228214Y0133507D01*
X0225859Y0133507D01*
X0225282Y0134083D01*
X0221589Y0134083D01*
X0221589Y0141957D01*
X0225282Y0141957D01*
X0225538Y0141583D01*
X0294436Y0141583D01*
X0294436Y0091386D01*
X0313137Y0072685D01*
X0313137Y0055953D01*
X0332822Y0055953D01*
X0343156Y0045618D01*
X0343453Y0045496D01*
X0345825Y0047869D01*
X0321503Y0045618D02*
X0318058Y0045618D01*
X0317770Y0045790D01*
X0313203Y0045790D02*
X0313137Y0046111D01*
X0313137Y0055953D01*
X0303294Y0046111D02*
X0301818Y0047587D01*
X0301818Y0067764D01*
X0282133Y0067764D01*
X0281996Y0067767D01*
X0281640Y0068256D01*
X0281640Y0072685D01*
X0271798Y0072685D01*
X0266877Y0067764D01*
X0266484Y0067570D01*
X0264416Y0064811D02*
X0275243Y0064811D01*
X0275243Y0063139D01*
X0275243Y0064811D02*
X0275243Y0067764D01*
X0275303Y0067767D01*
X0284224Y0060595D02*
X0284224Y0045790D01*
X0299029Y0045790D01*
X0301023Y0043796D01*
X0301023Y0028941D01*
X0304213Y0025750D01*
X0308024Y0025750D01*
X0314371Y0032097D01*
X0315860Y0030609D01*
X0315860Y0029690D01*
X0325560Y0019990D01*
X0332212Y0019990D01*
X0339917Y0027695D01*
X0346778Y0027695D01*
X0350631Y0023842D01*
X0358020Y0023842D01*
X0316119Y0030350D02*
X0315860Y0030609D01*
X0306247Y0030363D02*
X0306247Y0038729D01*
X0313137Y0045618D01*
X0313203Y0045790D01*
X0303596Y0045790D02*
X0303294Y0046111D01*
X0306119Y0030350D02*
X0306247Y0030363D01*
X0284224Y0060595D02*
X0255801Y0060595D01*
X0255801Y0129566D01*
X0261463Y0133709D02*
X0291975Y0133709D01*
X0300833Y0133217D02*
X0300957Y0133665D01*
X0300833Y0133217D02*
X0300833Y0109595D01*
X0301006Y0109399D01*
X0261463Y0133709D02*
X0261463Y0140107D01*
X0225538Y0140107D01*
X0225282Y0139989D01*
X0225282Y0138020D02*
X0225538Y0137646D01*
X0251129Y0137646D01*
X0249652Y0135677D02*
X0249652Y0075146D01*
X0246699Y0072193D01*
X0243631Y0071418D02*
X0243481Y0071418D01*
X0241487Y0073411D01*
X0241286Y0073177D01*
X0228491Y0073177D01*
X0228491Y0091386D01*
X0228491Y0109103D02*
X0230951Y0111563D01*
X0231227Y0111827D01*
X0227999Y0114024D02*
X0231444Y0117469D01*
X0231227Y0118520D01*
X0231444Y0118453D01*
X0231444Y0117469D01*
X0246207Y0117469D01*
X0246621Y0117457D01*
X0246207Y0113040D02*
X0242762Y0113040D01*
X0246207Y0113040D02*
X0246621Y0112890D01*
X0227999Y0114024D02*
X0224062Y0114024D01*
X0220617Y0110579D02*
X0212743Y0110579D01*
X0203885Y0119437D01*
X0203885Y0121898D01*
X0203629Y0122272D01*
X0205597Y0122272D02*
X0207566Y0122272D01*
X0207566Y0119437D01*
X0207822Y0119437D01*
X0208806Y0118453D01*
X0211759Y0118453D01*
X0211759Y0119437D01*
X0211759Y0122272D01*
X0211503Y0122272D01*
X0213235Y0122390D02*
X0213471Y0122272D01*
X0213235Y0122390D02*
X0213235Y0125343D01*
X0211266Y0127311D01*
X0209298Y0125343D02*
X0207329Y0127311D01*
X0199455Y0127311D01*
X0196995Y0126327D02*
X0196995Y0129772D01*
X0212743Y0129772D01*
X0217172Y0125343D01*
X0217172Y0122390D01*
X0217408Y0122272D01*
X0215440Y0122272D02*
X0215440Y0118945D01*
X0215696Y0118945D01*
X0215696Y0118453D01*
X0212743Y0118453D01*
X0211759Y0119437D01*
X0209534Y0122272D02*
X0209298Y0122390D01*
X0209298Y0125343D01*
X0207566Y0122272D02*
X0207329Y0122272D01*
X0207329Y0122390D01*
X0205853Y0122390D02*
X0205597Y0122272D01*
X0201660Y0122272D02*
X0201424Y0121898D01*
X0201424Y0113040D01*
X0201424Y0103689D01*
X0194534Y0103689D01*
X0191581Y0106642D01*
X0191109Y0106721D01*
X0197802Y0106721D02*
X0197979Y0107134D01*
X0197979Y0121898D01*
X0197723Y0122272D01*
X0197979Y0122390D01*
X0199455Y0122390D01*
X0199692Y0122272D01*
X0196995Y0126327D02*
X0185184Y0114516D01*
X0185184Y0112548D01*
X0181896Y0115028D02*
X0182231Y0115500D01*
X0187152Y0120422D01*
X0191581Y0124851D01*
X0191581Y0127803D01*
X0191818Y0128177D01*
X0192074Y0128296D01*
X0195518Y0128296D01*
X0195518Y0135185D01*
X0194534Y0134201D01*
X0192074Y0134201D01*
X0191818Y0134083D01*
X0191581Y0133709D01*
X0188629Y0133709D01*
X0188137Y0133217D01*
X0188137Y0132233D01*
X0182231Y0132233D01*
X0181936Y0132075D01*
X0188137Y0129280D02*
X0188137Y0127803D01*
X0182231Y0121898D01*
X0181896Y0121721D01*
X0188137Y0129280D02*
X0188629Y0129772D01*
X0191581Y0129772D01*
X0191818Y0130146D01*
X0195518Y0135185D02*
X0195518Y0137646D01*
X0195518Y0141583D01*
X0195518Y0143059D01*
X0195518Y0141583D02*
X0192074Y0141583D01*
X0191818Y0141957D01*
X0191581Y0143552D02*
X0188137Y0143552D01*
X0191581Y0143552D02*
X0191818Y0143926D01*
X0192074Y0145520D02*
X0191818Y0145894D01*
X0192074Y0145520D02*
X0195518Y0145520D01*
X0191581Y0149457D02*
X0182723Y0149457D01*
X0182251Y0149122D01*
X0185184Y0151918D02*
X0184692Y0152410D01*
X0179278Y0152410D01*
X0182251Y0155815D02*
X0182723Y0155855D01*
X0188629Y0161760D01*
X0188629Y0178985D01*
X0189121Y0179477D01*
X0199948Y0179477D01*
X0199948Y0160284D01*
X0201424Y0158807D01*
X0201424Y0155855D01*
X0201660Y0155737D01*
X0203392Y0155363D02*
X0203392Y0152902D01*
X0202408Y0151918D01*
X0185184Y0151918D01*
X0196995Y0156347D02*
X0197487Y0155855D01*
X0197723Y0155737D01*
X0196995Y0156347D02*
X0196995Y0164221D01*
X0192074Y0169142D01*
X0191741Y0169588D01*
X0192074Y0176032D02*
X0198471Y0169634D01*
X0198471Y0159792D01*
X0199455Y0158807D01*
X0199455Y0155855D01*
X0199692Y0155737D01*
X0203392Y0155363D02*
X0203629Y0155737D01*
X0215203Y0155363D02*
X0215203Y0150933D01*
X0215203Y0155363D02*
X0215440Y0155737D01*
X0225282Y0149831D02*
X0225538Y0149949D01*
X0228491Y0152902D01*
X0228491Y0165697D01*
X0244731Y0181937D01*
X0244731Y0191780D01*
X0241778Y0194733D01*
X0241385Y0195028D01*
X0241385Y0188335D02*
X0238333Y0188335D01*
X0233904Y0195225D02*
X0229967Y0195225D01*
X0229849Y0195028D01*
X0244731Y0181937D02*
X0244731Y0158807D01*
X0256542Y0158807D01*
X0261463Y0153886D01*
X0266385Y0148965D01*
X0266570Y0148578D01*
X0263924Y0146996D02*
X0263924Y0146504D01*
X0264908Y0145520D01*
X0275243Y0145520D01*
X0275243Y0148473D01*
X0275389Y0148775D01*
X0278908Y0152294D01*
X0279156Y0152294D01*
X0279156Y0157382D01*
X0290916Y0169142D01*
X0295912Y0169142D01*
X0295912Y0182922D01*
X0300833Y0187843D01*
X0300906Y0187981D01*
X0300833Y0188335D01*
X0300833Y0214418D01*
X0300799Y0214673D01*
X0235125Y0167311D02*
X0234888Y0167174D01*
X0234888Y0162744D01*
X0231444Y0159300D01*
X0231385Y0159044D01*
X0230951Y0158807D01*
X0230951Y0147981D01*
X0225538Y0147981D01*
X0225282Y0147863D01*
X0225282Y0143926D02*
X0241426Y0143926D01*
X0241426Y0143999D01*
X0249652Y0135677D02*
X0225538Y0135677D01*
X0225282Y0136052D01*
X0225282Y0132114D02*
X0225046Y0131740D01*
X0217172Y0131740D01*
X0217172Y0129772D01*
X0221109Y0123866D02*
X0221109Y0117961D01*
X0220617Y0117469D01*
X0217172Y0117469D02*
X0215696Y0118945D01*
X0221109Y0123866D02*
X0225046Y0127803D01*
X0225282Y0128177D01*
X0195518Y0137646D02*
X0192074Y0137646D01*
X0191818Y0138020D01*
X0191581Y0139614D02*
X0188629Y0139614D01*
X0188137Y0139122D01*
X0188137Y0136170D01*
X0191581Y0136170D01*
X0191818Y0136052D01*
X0191581Y0139614D02*
X0191818Y0139989D01*
X0207822Y0171603D02*
X0209790Y0173571D01*
X0209928Y0173611D01*
X0192074Y0176032D02*
X0191741Y0176281D01*
X0238865Y0159044D02*
X0239318Y0158807D01*
X0244731Y0158807D01*
X0257526Y0144044D02*
X0261955Y0148473D01*
X0262003Y0148578D01*
X0262448Y0148473D01*
X0263924Y0146996D01*
X0275389Y0148775D02*
X0275735Y0148965D01*
X0282082Y0148775D02*
X0282133Y0148965D01*
X0282133Y0154820D01*
X0282133Y0148965D02*
X0300341Y0148965D01*
X0300341Y0156347D01*
X0300799Y0156405D01*
X0261463Y0133709D02*
X0261463Y0067764D01*
X0261917Y0067570D01*
X0261955Y0067272D01*
X0264416Y0064811D01*
X0246037Y0069012D02*
X0246037Y0041901D01*
X0241193Y0037057D01*
X0241193Y0029668D01*
X0219540Y0015101D02*
X0218767Y0014328D01*
X0219140Y0015107D02*
X0219540Y0015101D01*
X0219140Y0015107D02*
X0215203Y0019044D01*
X0215203Y0047095D01*
X0218648Y0050540D01*
X0229967Y0050540D01*
X0229967Y0054969D01*
X0230127Y0055161D01*
X0230459Y0055461D01*
X0230459Y0058906D01*
X0241286Y0058906D01*
X0241487Y0059213D01*
X0241778Y0054969D02*
X0241487Y0054646D01*
X0241778Y0054969D02*
X0244239Y0054969D01*
X0244239Y0063335D01*
X0243747Y0063335D01*
X0244239Y0063335D02*
X0244239Y0066288D01*
X0241778Y0068748D01*
X0241487Y0068844D01*
X0243631Y0071418D02*
X0246037Y0069012D01*
X0228491Y0073177D02*
X0220617Y0073177D01*
X0220617Y0055461D01*
X0220127Y0055161D01*
X0142861Y0065796D02*
X0139908Y0068748D01*
X0139832Y0068844D01*
X0073471Y0080067D02*
X0073302Y0079752D01*
X0073471Y0080067D02*
X0073471Y0084004D01*
X0069099Y0083077D02*
X0069042Y0083020D01*
X0068058Y0085481D02*
X0068058Y0090402D01*
X0068265Y0090437D01*
X0068058Y0085481D02*
X0058215Y0085481D01*
X0054770Y0082036D01*
X0054770Y0081544D01*
X0053294Y0080067D01*
X0052849Y0079752D01*
X0052802Y0079575D01*
X0029672Y0079575D01*
X0029703Y0079544D01*
X0029667Y0079544D01*
X0029667Y0068233D01*
X0029672Y0068256D01*
X0057416Y0079752D02*
X0057723Y0080067D01*
X0061168Y0080067D01*
X0058265Y0090437D02*
X0058707Y0090894D01*
X0061168Y0093355D01*
X0054770Y0046580D02*
X0044234Y0046580D01*
X0300957Y0075397D02*
X0301325Y0075146D01*
X0301818Y0074654D01*
X0301818Y0067764D01*
D24*
X0321503Y0045618D03*
X0246699Y0072193D03*
X0243747Y0063335D03*
X0188137Y0063335D03*
X0142861Y0062843D03*
X0090203Y0062843D03*
X0086759Y0049063D03*
X0061168Y0080067D03*
X0073471Y0084004D03*
X0074455Y0097292D03*
X0069534Y0114024D03*
X0084298Y0153394D03*
X0090696Y0159792D03*
X0077900Y0164713D03*
X0177802Y0201130D03*
X0233904Y0195225D03*
X0261463Y0153886D03*
X0257526Y0144044D03*
X0251129Y0137646D03*
X0242762Y0113040D03*
X0224062Y0114024D03*
X0220617Y0110579D03*
X0220617Y0117469D03*
X0211266Y0127311D03*
X0217172Y0129772D03*
X0199455Y0127311D03*
X0187152Y0120422D03*
X0201424Y0113040D03*
X0179770Y0110579D03*
X0215203Y0150933D03*
X0291975Y0133709D03*
D25*
X0255801Y0129566D03*
X0241426Y0143999D03*
X0132425Y0203109D03*
M02*
